<svg xmlns="http://www.w3.org/2000/svg" viewBox="0 0 64 64">
  <!-- Background circle -->
  <circle cx="32" cy="32" r="30" fill="#f5f5f0" stroke="#1a4a2e" stroke-width="2"/>
  <!-- Central pentagon -->
  <polygon points="32,18 40,24 37,33 27,33 24,24" fill="#0d2b1a"/>
  <!-- Top-left patch -->
  <polygon points="14,22 22,18 24,24 17,29 12,26" fill="#0d2b1a"/>
  <!-- Top-right patch -->
  <polygon points="50,22 52,26 45,29 40,24 42,18" fill="#0d2b1a"/>
  <!-- Bottom-left patch -->
  <polygon points="13,38 18,34 27,33 25,42 18,44" fill="#0d2b1a"/>
  <!-- Bottom-right patch -->
  <polygon points="51,38 46,44 39,42 37,33 46,34" fill="#0d2b1a"/>
  <!-- Bottom patch -->
  <polygon points="25,42 32,46 39,42 37,33 27,33" fill="#0d2b1a"/>
</svg>
